<svg width="120" height="24" viewBox="0 0 120 24" fill="none" xmlns="http://www.w3.org/2000/svg">
<path d="M31.0088 6.19623V19.9491H28.4182V6.19623H24.184V3.99491H35.2213V6.19623H31.0088Z" fill="white"/>
<path d="M37.5398 11.2636C37.7937 10.5807 38.1275 10.0758 38.5412 9.74887C38.9621 9.42194 39.4809 9.25847 40.0977 9.25847C40.4315 9.25847 40.7581 9.29843 41.0774 9.37835C41.4039 9.45826 41.7232 9.57451 42.0352 9.72707L41.1862 11.7322C40.983 11.5869 40.7617 11.4816 40.5222 11.4162C40.29 11.3436 40.0288 11.3072 39.7385 11.3072C38.9548 11.3072 38.3924 11.6233 38.0513 12.2553C37.7103 12.8801 37.5398 13.9336 37.5398 15.4156V19.9491H35.1777V9.5963H37.5398V11.2636Z" fill="white"/>
<path d="M53.0943 19.9491H50.7323V18.6087C50.3114 19.2044 49.8179 19.6476 49.2519 19.9382C48.6932 20.2288 48.051 20.3741 47.3253 20.3741C45.8667 20.3741 44.7165 19.8764 43.8748 18.8811C43.0403 17.8785 42.623 16.509 42.623 14.7727C42.623 13.1235 43.0512 11.794 43.9074 10.7841C44.7637 9.76703 45.8812 9.25847 47.26 9.25847C48.1018 9.25847 48.8202 9.43647 49.4152 9.79246C50.0175 10.1412 50.4565 10.6461 50.7323 11.3072V9.6181H53.0943V19.9491ZM50.7976 14.7509C50.7976 13.6829 50.5472 12.8511 50.0465 12.2553C49.5531 11.6596 48.8601 11.3617 47.9675 11.3617C47.0749 11.3617 46.3711 11.6705 45.8558 12.288C45.3479 12.8983 45.0939 13.7483 45.0939 14.8381C45.0939 15.9351 45.3406 16.7815 45.8341 17.3772C46.3275 17.973 47.0242 18.2708 47.924 18.2708C48.773 18.2708 49.4624 17.9475 49.9921 17.3009C50.5291 16.6543 50.7976 15.8043 50.7976 14.7509Z" fill="white"/>
<path d="M59.9845 20.5702L54.5747 9.6181H57.1544L59.4076 14.8163C59.4801 14.9761 59.5672 15.2159 59.6688 15.5355C59.7704 15.8552 59.8756 16.2366 59.9845 16.6798C60.057 16.3674 60.1405 16.0586 60.2348 15.7535C60.3364 15.4411 60.4561 15.1287 60.594 14.8163L62.8363 9.6181H65.4052L59.9845 20.5702Z" fill="white"/>
<path d="M76.8343 15.1323H68.5835C68.6416 16.0986 68.9282 16.8541 69.4435 17.399C69.9587 17.9366 70.6444 18.2054 71.5007 18.2054C72.2627 18.2054 72.8976 18.0456 73.4056 17.726C73.9135 17.4063 74.3562 16.8905 74.7335 16.1785L76.7255 17.29C76.1449 18.329 75.4265 19.1027 74.5703 19.6112C73.714 20.1198 72.7089 20.3741 71.5551 20.3741C69.9006 20.3741 68.5835 19.8692 67.6039 18.8593C66.6243 17.8495 66.1344 16.5018 66.1344 14.8163C66.1344 13.1962 66.6388 11.8666 67.6474 10.8277C68.6634 9.78156 69.9659 9.25847 71.5551 9.25847C73.2169 9.25847 74.5122 9.73434 75.441 10.6861C76.3699 11.6378 76.8343 12.9709 76.8343 14.6855V15.1323ZM74.3852 13.5413C74.2909 12.8002 74.0079 12.2372 73.5362 11.8521C73.0645 11.4598 72.4187 11.2636 71.5987 11.2636C70.8222 11.2636 70.1981 11.4525 69.7265 11.8303C69.2548 12.2081 68.9246 12.7784 68.7359 13.5413H74.3852Z" fill="white"/>
<path d="M79.414 19.9491V3.05771H81.7761V19.9491H79.414Z" fill="white"/>
<path d="M85.2701 19.9491V3.05771H87.6322V19.9491H85.2701Z" fill="white"/>
<path d="M90.8106 5.15006C90.8106 4.75048 90.9557 4.40539 91.246 4.11478C91.5435 3.82418 91.8954 3.67887 92.3018 3.67887C92.7227 3.67887 93.071 3.82054 93.3467 4.10388C93.6298 4.37996 93.7713 4.72868 93.7713 5.15006C93.7713 5.57143 93.6298 5.92742 93.3467 6.21803C93.0637 6.50137 92.7154 6.64304 92.3018 6.64304C91.8954 6.64304 91.5435 6.49773 91.246 6.20713C90.9557 5.90926 90.8106 5.5569 90.8106 5.15006ZM91.1262 19.9491V9.6181H93.4882V19.9491H91.1262Z" fill="white"/>
<path d="M106.583 19.9491H104.221V18.6087C103.8 19.2044 103.306 19.6476 102.74 19.9382C102.182 20.2288 101.539 20.3741 100.814 20.3741C99.3552 20.3741 98.205 19.8764 97.3633 18.8811C96.5288 17.8785 96.1115 16.509 96.1115 14.7727C96.1115 13.1235 96.5396 11.794 97.3959 10.7841C98.2522 9.76703 99.3697 9.25847 100.748 9.25847C101.59 9.25847 102.309 9.43647 102.904 9.79246C103.506 10.1412 103.945 10.6461 104.221 11.3072V9.6181H106.583V19.9491ZM104.286 14.7509C104.286 13.6829 104.036 12.8511 103.535 12.2553C103.042 11.6596 102.349 11.3617 101.456 11.3617C100.563 11.3617 99.8596 11.6705 99.3443 12.288C98.8364 12.8983 98.5824 13.7483 98.5824 14.8381C98.5824 15.9351 98.8291 16.7815 99.3226 17.3772C99.816 17.973 100.513 18.2708 101.412 18.2708C102.261 18.2708 102.951 17.9475 103.481 17.3009C104.018 16.6543 104.286 15.8043 104.286 14.7509Z" fill="white"/>
<path d="M109.848 19.9491V9.6181H112.069V11.3072C112.54 10.5953 113.096 10.0758 113.734 9.74887C114.373 9.42194 115.149 9.25847 116.064 9.25847C116.833 9.25847 117.486 9.38198 118.023 9.62899C118.567 9.86874 118.992 10.2284 119.296 10.7079C119.478 10.9912 119.608 11.3218 119.688 11.6995C119.768 12.0773 119.808 12.7385 119.808 13.6829V19.9491H117.424V14.6419C117.424 13.2833 117.257 12.3825 116.923 11.9393C116.597 11.4889 116.013 11.2636 115.171 11.2636C114.62 11.2636 114.126 11.3654 113.691 11.5688C113.263 11.7722 112.925 12.0592 112.678 12.4297C112.504 12.6767 112.381 12.9964 112.308 13.3887C112.243 13.7737 112.21 14.3913 112.21 15.2413V19.9491H109.848Z" fill="white"/>
<path d="M7.39483 16.9224L10.4241 19.9087L13.4534 16.9224L10.4241 13.9361L7.39483 16.9224ZM10.4241 2.42946V2.43395C9.5571 2.43395 8.69007 2.76027 8.02954 3.41142L8.0265 3.40843C7.3675 4.05958 7.03648 4.9158 7.03648 5.77202C7.03648 6.62974 7.36598 7.48447 8.02347 8.13262H8.02802L10.4241 10.4932L12.8187 8.13262H12.8233C13.4853 7.47998 13.8163 6.62525 13.8163 5.77202H13.8118C13.8118 4.91729 13.4808 4.06257 12.8202 3.41142C12.1552 2.75728 11.2881 2.42946 10.4241 2.42946ZM15.1996 18.6438L11.2972 22.4908L10.4241 23.3515L9.55102 22.4908L5.64862 18.6438L1.74621 22.4908L0 20.7694L8.67944 12.2147L6.28485 9.85405L6.28788 9.85106C5.14146 8.7224 4.569 7.24496 4.569 5.77202C4.569 4.29758 5.14146 2.82164 6.28485 1.69448V1.69149C7.42824 0.564329 8.92694 0 10.4241 0V0.00449068C11.9244 0.00449068 13.4246 0.567323 14.5649 1.69149C15.7083 2.81865 16.2793 4.29608 16.2793 5.77352H16.2747C16.2747 7.24945 15.7038 8.72539 14.5619 9.85255L14.5649 9.85555L12.1703 12.2147L20.8483 20.7694L19.102 22.4908L15.1996 18.6438Z" fill="white"/>
</svg>
